<svg id="Group_13" data-name="Group 13" xmlns="http://www.w3.org/2000/svg" width="15.844" height="15.843" viewBox="0 0 15.844 15.843">
  <defs>
    <style>
      .cls-1 {
        fill: #7c7c7c;
      }
    </style>
  </defs>
  <g id="Group_12" data-name="Group 12">
    <path id="Path_24" data-name="Path 24" class="cls-1" d="M2243.782,328.782a9,9,0,0,1-2.825-.45,1.292,1.292,0,0,0-1.256.265l-1.781,1.345a9.845,9.845,0,0,1-4.427-4.425l1.305-1.735a1.28,1.28,0,0,0,.315-1.3,9.007,9.007,0,0,1-.452-2.83,1.273,1.273,0,0,0-1.271-1.271h-2.909a1.273,1.273,0,0,0-1.271,1.271,14.589,14.589,0,0,0,14.572,14.572,1.273,1.273,0,0,0,1.271-1.271v-2.9A1.273,1.273,0,0,0,2243.782,328.782Z" transform="translate(-2229.21 -318.383)"/>
  </g>
</svg>
